<svg xmlns="http://www.w3.org/2000/svg" aria-hidden="true" style="position:absolute;width:0;height:0;overflow:hidden"><defs><symbol id="icon-close" viewBox="0 0 32 32"><path fill="#fff" d="m8.532 25.333-1.867-1.867 7.467-7.467-7.467-7.467 1.867-1.867 7.467 7.467 7.467-7.467 1.867 1.867-7.467 7.467 7.467 7.467-1.867 1.867-7.467-7.467z" style="fill:var(--color1, #fff)"/></symbol><symbol id="icon-menu" viewBox="0 0 32 32"><path fill="#fff" d="M4 24v-2.667h24V24zm0-6.667v-2.667h24v2.667zm0-6.666V8h24v2.667z" style="fill:var(--color1, #fff)"/></symbol><symbol id="icon-playstore" viewBox="0 0 28 32"><path fill="#ea4335" d="M13.184 15.282.121 29.341l.002.009C.524 30.877 1.898 32 3.53 32c.653 0 1.265-.179 1.79-.493l.042-.025 14.703-8.603z" style="fill:var(--color2, #ea4335)"/><path fill="#fbbc04" d="m26.397 12.888-.012-.009-6.348-3.731-7.151 6.453 7.177 7.276 6.314-3.694a3.59 3.59 0 0 0 1.859-3.154 3.58 3.58 0 0 0-1.838-3.142z" style="fill:var(--color3, #fbbc04)"/><path fill="#4285f4" d="M.12 2.658a3.5 3.5 0 0 0-.12.921v24.843q.001.48.121.919l13.51-13.699z" style="fill:var(--color4, #4285f4)"/><path fill="#34a853" d="m13.281 16 6.76-6.854L5.355.512A3.5 3.5 0 0 0 3.532.001C1.9.001.524 1.127.123 2.655l-.001.004 13.159 13.342z" style="fill:var(--color5, #34a853)"/></symbol><symbol id="icon-check" viewBox="0 0 34 34" fill="none">
  <path d="M16.6667 33.3333C21.269 33.3333 25.4357 31.4678 28.4518 28.4518C31.4678 25.4357 33.3333 21.269 33.3333 16.6667C33.3333 12.0643 31.4678 7.89767 28.4518 4.88155C25.4357 1.86548 21.269 0 16.6667 0C12.0643 0 7.89767 1.86548 4.88155 4.88155C1.86548 7.89767 0 12.0643 0 16.6667C0 21.269 1.86548 25.4357 4.88155 28.4518C7.89767 31.4678 12.0643 33.3333 16.6667 33.3333Z" fill="url(#paint0_linear_2002_234)" />
  <path d="M16.6667 33.3333C21.269 33.3333 25.4357 31.4678 28.4518 28.4518C31.4678 25.4357 33.3333 21.269 33.3333 16.6667C33.3333 12.0643 31.4678 7.89767 28.4518 4.88155C25.4357 1.86548 21.269 0 16.6667 0C12.0643 0 7.89767 1.86548 4.88155 4.88155C1.86548 7.89767 0 12.0643 0 16.6667C0 21.269 1.86548 25.4357 4.88155 28.4518C7.89767 31.4678 12.0643 33.3333 16.6667 33.3333Z" fill="url(#paint1_linear_2002_234)" />
  <path d="M10 16.6667L15 21.6667L25 11.6667" fill="url(#paint2_linear_2002_234)" />
  <path d="M10 16.6667L15 21.6667L25 11.6667" fill="url(#paint3_linear_2002_234)" />
  <path d="M10 16.6667L15 21.6667L25 11.6667" stroke="white" stroke-width="4" stroke-linecap="round" stroke-linejoin="round" />
  <defs>
    <linearGradient id="paint0_linear_2002_234" x1="16.6667" y1="0" x2="16.6667" y2="33.3333" gradientUnits="userSpaceOnUse">
      <stop stop-color="#FFE082" />
      <stop offset="1" stop-color="#FFB300" />
    </linearGradient>
    <linearGradient id="paint1_linear_2002_234" x1="16.6667" y1="0" x2="16.6667" y2="33.3333" gradientUnits="userSpaceOnUse">
      <stop stop-color="#FFF176" />
      <stop offset="0.5" stop-color="#FFB300" />
      <stop offset="1" stop-color="#FF6F00" />
    </linearGradient>
    <linearGradient id="paint2_linear_2002_234" x1="17.5" y1="11.6667" x2="17.5" y2="21.6667" gradientUnits="userSpaceOnUse">
      <stop stop-color="#FFE082" />
      <stop offset="1" stop-color="#FFB300" />
    </linearGradient>
    <linearGradient id="paint3_linear_2002_234" x1="17.5" y1="11.6667" x2="17.5" y2="21.6667" gradientUnits="userSpaceOnUse">
      <stop stop-color="#FFF176" />
      <stop offset="0.5" stop-color="#FFB300" />
      <stop offset="1" stop-color="#FF6F00" />
    </linearGradient>
  </defs>
</symbol><symbol id="icon-email" viewBox="0 0 21 21" fill="none">
  <path d="M20.5612 0.438999C20.3726 0.250498 20.1371 0.115688 19.879 0.048456C19.621 -0.018776 19.3497 -0.0159996 19.093 0.0564992H19.079L1.08461 5.5165C0.792481 5.60069 0.53283 5.77166 0.340066 6.00676C0.147302 6.24185 0.0305249 6.52997 0.00521012 6.83294C-0.0201046 7.1359 0.047238 7.4394 0.198314 7.70323C0.34939 7.96705 0.577067 8.17874 0.851173 8.31025L8.81242 12.1877L12.6843 20.1443C12.8047 20.4013 12.9962 20.6185 13.2361 20.7701C13.476 20.9218 13.7542 21.0017 14.038 21.0002C14.0812 21.0002 14.1243 20.9984 14.1674 20.9946C14.4701 20.9701 14.7581 20.8536 14.9927 20.6607C15.2273 20.4678 15.3973 20.2078 15.4799 19.9156L20.9362 1.92119C20.9362 1.9165 20.9362 1.91181 20.9362 1.90712C21.0096 1.65115 21.0136 1.38024 20.9477 1.12223C20.8818 0.864215 20.7484 0.628396 20.5612 0.438999ZM14.0465 19.4862L14.0418 19.4993V19.4927L10.2862 11.7771L14.7862 7.27712C14.9209 7.13533 14.9949 6.94651 14.9924 6.75094C14.9899 6.55537 14.9111 6.36852 14.7728 6.23022C14.6345 6.09191 14.4476 6.01311 14.252 6.01061C14.0565 6.0081 13.8677 6.0821 13.7259 6.21681L9.22586 10.7168L1.50742 6.96119H1.50086H1.51399L19.4999 1.50025L14.0465 19.4862Z" fill="white" />
</symbol></defs></svg>