<svg xmlns="http://www.w3.org/2000/svg" aria-hidden="true" style="position:absolute;width:0;height:0;overflow:hidden"><defs><symbol id="icon-close" viewBox="0 0 32 32"><path fill="#fff" d="m8.532 25.333-1.867-1.867 7.467-7.467-7.467-7.467 1.867-1.867 7.467 7.467 7.467-7.467 1.867 1.867-7.467 7.467 7.467 7.467-1.867 1.867-7.467-7.467z" style="fill:var(--color1, #fff)"/></symbol><symbol id="icon-menu" viewBox="0 0 32 32"><path fill="#fff" d="M4 24v-2.667h24V24zm0-6.667v-2.667h24v2.667zm0-6.666V8h24v2.667z" style="fill:var(--color1, #fff)"/></symbol><symbol id="icon-playstore" viewBox="0 0 28 32"><path fill="#ea4335" d="M13.184 15.282.121 29.341l.002.009C.524 30.877 1.898 32 3.53 32c.653 0 1.265-.179 1.79-.493l.042-.025 14.703-8.603z" style="fill:var(--color2, #ea4335)"/><path fill="#fbbc04" d="m26.397 12.888-.012-.009-6.348-3.731-7.151 6.453 7.177 7.276 6.314-3.694a3.59 3.59 0 0 0 1.859-3.154 3.58 3.58 0 0 0-1.838-3.142z" style="fill:var(--color3, #fbbc04)"/><path fill="#4285f4" d="M.12 2.658a3.5 3.5 0 0 0-.12.921v24.843q.001.48.121.919l13.51-13.699z" style="fill:var(--color4, #4285f4)"/><path fill="#34a853" d="m13.281 16 6.76-6.854L5.355.512A3.5 3.5 0 0 0 3.532.001C1.9.001.524 1.127.123 2.655l-.001.004 13.159 13.342z" style="fill:var(--color5, #34a853)"/></symbol></defs></svg>